# xmcd
#
# Track frame offsets:
#	150
#	18255
#	30522
#	49935
#	71881
#	82860
#	97518
#	111484
#	125730
#	139897
#	153060
#	165192
#
# Disc length: 2385 seconds
#
# Revision: 1
# Processed by: cddbd v1.5.2PL0 Copyright (c) Steve Scherf et al.
# Submitted via: audiograbber 1.83.01
#
DISCID=8d094f0c
DTITLE=San Franzisco Jazz Legends - The Bay City Jazz Band
DYEAR=2006
DGENRE=
TTITLE0=Thomas Dorsey - Riverside Blues
TTITLE1=Oliver King - Chimes Blues
TTITLE2=Johnson - Williams - Kansas City man Blues
TTITLE3=Lil Hardin - Skid da de dat
TTITLE4=Armstrong - Hardin - coal cart Blues
TTITLE5=Armstrong - Hardin - New Orleans stomp
TTITLE6=Lu Waters - Yerba Buena Strut
TTITLE7=Brunies - Cassard - Angry
TTITLE8=Clarence Willimas - Terrible Blues
TTITLE9=Rynal - Bloom - Willie the Weeper
TTITLE10=W.C. Handy - yellow dog Blues
TTITLE11=Meyer - Ruby - my honeys lovin arms
EXTD=
EXTT0=
EXTT1=
EXTT2=
EXTT3=
EXTT4=
EXTT5=
EXTT6=
EXTT7=
EXTT8=
EXTT9=
EXTT10=
EXTT11=
PLAYORDER=
